<svg width="766" height="341" viewBox="0 0 766 341" fill="none" xmlns="http://www.w3.org/2000/svg">
<mask id="path-1-outside-1_2230_2" maskUnits="userSpaceOnUse" x="0" y="0" width="766" height="341" fill="black">
<rect fill="white" width="766" height="341"/>
<path d="M746 281C746 303.091 728.091 321 706 321H686C663.909 321 646 303.091 646 281V121H736C741.523 121 746 125.477 746 131V281ZM280 20C302.091 20 320 37.9086 320 60V280C320 302.091 302.091 320 280 320H30C24.4772 320 20 315.523 20 310V30C20 24.4772 24.4772 20 30 20H280ZM393 20C415.091 20 433 37.9086 433 60V280C433 302.091 415.091 320 393 320H373C350.909 320 333 302.091 333 280V60C333 37.9086 350.909 20 373 20H393ZM540 166C581.421 166 615 199.579 615 241C615 282.421 581.421 316 540 316C498.579 316 465 282.421 465 241C465 199.579 498.579 166 540 166ZM120 210C120 215.523 124.477 220 130 220H210C215.523 220 220 215.523 220 210V130C220 124.477 215.523 120 210 120H130C124.477 120 120 124.477 120 130V210ZM646 121H486C463.909 121 446 103.091 446 81V61C446 38.9086 463.909 21 486 21H636C641.523 21 646 25.4772 646 31V121Z"/>
</mask>
<path d="M746 281C746 303.091 728.091 321 706 321H686C663.909 321 646 303.091 646 281V121H736C741.523 121 746 125.477 746 131V281ZM280 20C302.091 20 320 37.9086 320 60V280C320 302.091 302.091 320 280 320H30C24.4772 320 20 315.523 20 310V30C20 24.4772 24.4772 20 30 20H280ZM393 20C415.091 20 433 37.9086 433 60V280C433 302.091 415.091 320 393 320H373C350.909 320 333 302.091 333 280V60C333 37.9086 350.909 20 373 20H393ZM540 166C581.421 166 615 199.579 615 241C615 282.421 581.421 316 540 316C498.579 316 465 282.421 465 241C465 199.579 498.579 166 540 166ZM120 210C120 215.523 124.477 220 130 220H210C215.523 220 220 215.523 220 210V130C220 124.477 215.523 120 210 120H130C124.477 120 120 124.477 120 130V210ZM646 121H486C463.909 121 446 103.091 446 81V61C446 38.9086 463.909 21 486 21H636C641.523 21 646 25.4772 646 31V121Z" fill="#352922"/>
<path d="M706 321V341V341V321ZM646 281H626V281H646ZM320 60H340V60H320ZM280 320V340V340V320ZM433 60H453V60H433ZM393 320V340V340V320ZM333 280H313V280H333ZM373 20V0V0V20ZM446 81H426V81H446ZM486 21V1V1V21ZM746 281H726C726 292.046 717.046 301 706 301V321V341C739.137 341 766 314.137 766 281H746ZM706 321V301H686V321V341H706V321ZM686 321V301C674.954 301 666 292.046 666 281H646H626C626 314.137 652.863 341 686 341V321ZM646 281H666V121H646H626V281H646ZM646 121V141H736V121V101H646V121ZM746 131H726V281H746H766V131H746ZM280 20V40C291.046 40 300 48.9543 300 60H320H340C340 26.8629 313.137 0 280 0V20ZM320 60H300V280H320H340V60H320ZM320 280H300C300 291.046 291.046 300 280 300V320V340C313.137 340 340 313.137 340 280H320ZM280 320V300H30V320V340H280V320ZM20 310H40V30H20H0V310H20ZM30 20V40H280V20V0H30V20ZM393 20V40C404.046 40 413 48.9543 413 60H433H453C453 26.8629 426.137 0 393 0V20ZM433 60H413V280H433H453V60H433ZM433 280H413C413 291.046 404.046 300 393 300V320V340C426.137 340 453 313.137 453 280H433ZM393 320V300H373V320V340H393V320ZM373 320V300C361.954 300 353 291.046 353 280H333H313C313 313.137 339.863 340 373 340V320ZM333 280H353V60H333H313V280H333ZM333 60H353C353 48.9543 361.954 40 373 40V20V0C339.863 0 313 26.8629 313 60H333ZM373 20V40H393V20V0H373V20ZM540 166V186C570.376 186 595 210.624 595 241H615H635C635 188.533 592.467 146 540 146V166ZM615 241H595C595 271.376 570.376 296 540 296V316V336C592.467 336 635 293.467 635 241H615ZM540 316V296C509.624 296 485 271.376 485 241H465H445C445 293.467 487.533 336 540 336V316ZM465 241H485C485 210.624 509.624 186 540 186V166V146C487.533 146 445 188.533 445 241H465ZM130 220V240H210V220V200H130V220ZM220 210H240V130H220H200V210H220ZM210 120V100H130V120V140H210V120ZM120 130H100V210H120H140V130H120ZM646 121V101H486V121V141H646V121ZM486 121V101C474.954 101 466 92.0457 466 81H446H426C426 114.137 452.863 141 486 141V121ZM446 81H466V61H446H426V81H446ZM446 61H466C466 49.9543 474.954 41 486 41V21V1C452.863 1 426 27.8629 426 61H446ZM486 21V41H636V21V1H486V21ZM646 31H626V121H646H666V31H646ZM220 130H240C240 113.431 226.569 100 210 100V120V140C204.477 140 200 135.523 200 130H220ZM130 220V200C135.523 200 140 204.477 140 210H120H100C100 226.569 113.431 240 130 240V220ZM20 30H40C40 35.5228 35.5229 40 30 40V20V0C13.4314 0 0 13.4315 0 30H20ZM210 220V240C226.569 240 240 226.569 240 210H220H200C200 204.477 204.477 200 210 200V220ZM636 21V41C630.477 41 626 36.5228 626 31H646H666C666 14.4315 652.569 1 636 1V21ZM30 320V300C35.5228 300 40 304.477 40 310H20H0C0 326.569 13.4315 340 30 340V320ZM130 120V100C113.431 100 100 113.431 100 130H120H140C140 135.523 135.523 140 130 140V120ZM736 121V141C730.477 141 726 136.523 726 131H746H766C766 114.431 752.569 101 736 101V121Z" fill="white" mask="url(#path-1-outside-1_2230_2)"/>
<path d="M188.005 143.195C187.761 144.414 187.517 145.633 185.015 153.696C182.512 161.759 177.759 176.63 174.944 185.022C171.614 194.952 170.035 196.993 168.685 198.221C167.197 199.575 165.237 200.078 163.394 199.773C157.608 198.816 154.289 184.128 152.058 171.989C150.173 161.735 155.353 151.011 158.934 141.32C160.782 136.318 164.11 133.721 165.891 132.98C173.186 140.783 182.826 157.334 183.816 161.831C183.942 162.886 183.942 163.739 183.942 164.618" stroke="white" stroke-width="2" stroke-linecap="round"/>
<path d="M202.591 142C198.912 143.718 190.823 147.88 183.896 151.899C179.479 154.461 176.13 159.708 166.495 170.524C162.203 175.343 157.299 175.849 152.928 177.821C149.35 179.436 147.814 183.111 146.88 186.982C145.323 193.431 144.604 195.795 144.477 196.846C143.939 201.28 151.729 189.176 154.317 185.907C158.686 180.386 164.65 176.728 170.979 174.515C180.92 171.04 186.42 166.777 191.495 162.819C195.172 159.952 197.413 157.643 198.399 157.938C201.601 158.898 196.94 165.499 193.509 169.243C184.544 179.022 175.893 179.661 171.949 181.271C167.859 182.941 164.931 186.923 162.033 189.883C158.802 193.184 158.393 196.412 158.328 198.07C158.296 198.894 159.117 199.607 159.918 199.983C160.72 200.36 161.695 200.36 162.685 200.055C167.221 198.659 171.047 191.776 174.444 187.323C178.561 181.925 183.244 181.53 187.37 180.664C191.294 179.84 193.841 179.554 195.56 179.735C202.051 180.418 198.041 195.787 196.628 199.302C195.86 201.213 191.167 200.73 186.984 200.364C185.326 200.219 184.751 199.267 184.254 198.463C182.174 195.101 182.771 191.259 181.792 189.355C179.293 184.494 170.863 184.61 164.82 181.966C152.51 176.578 144.246 172.421 141.226 168.061C139.273 165.24 138.447 161.839 138.077 158.95C137.788 156.686 138.318 154.813 139.542 153.033C141.19 150.637 143.732 149.517 145.083 148.471C149.054 145.397 158.112 147.903 167.958 148.462C171.214 148.647 173.156 149.509 174.815 150.303C177.013 151.356 177.105 154.913 176.739 157.739C175.658 166.097 158.91 167.605 151.029 167.246C149.523 167.178 149.528 165.418 150.014 164.302C152.105 159.498 157.137 157.646 160.716 155.367C164.877 152.718 169.814 150.51 174.87 149.022C177.327 148.53 179.558 148.157 181.644 147.973C182.756 147.91 183.975 147.91 185.231 147.91" stroke="white" stroke-width="20" stroke-linecap="round"/>
<path d="M209.798 160.925C208.697 160.071 204.774 157.608 201.191 155.883C199.352 155.266 197.25 153.796 195.161 151.827C194.17 151.077 193.316 150.833 192.437 150.582" stroke="white" stroke-width="20" stroke-linecap="round"/>
<path d="M459.121 138.393C459.121 143.398 458.634 154.01 457.954 165.313C457.479 173.217 457.03 181.838 456.476 185.29C456.196 187.04 455.797 189.473 455.309 191.935C454.965 193.672 452.354 194.035 451.494 195.939C451.081 196.851 450.877 197.721 452.031 196.576C459.996 188.675 461.448 181.646 463.363 174.676C464.513 170.494 465.149 166.731 467.116 158.862C468.273 154.231 468.968 149.134 470.318 144.257C470.824 142.43 473.39 141.721 475.848 141.289C476.95 141.095 477.819 141.466 478.746 142.262C484.025 146.795 481.409 155.982 479.813 160.721C478.3 165.216 475.263 168.423 472.86 171.808C470.124 175.662 467.011 178.27 464.547 183.066C462.245 187.547 458.419 197.167 454.452 204.432C453.345 206.461 452.11 208.196 450.576 209.426C449.838 210.018 448.919 210.169 448.236 209.502C447.553 208.835 447.065 207.251 446.997 205.52C446.856 201.952 451.693 194.836 459.25 183.908C466.832 172.945 469.456 165.242 472.088 161.817C481.232 149.913 484.349 146.416 490.798 140.262C494.958 136.292 499.855 136.672 503.68 137.704C507.111 138.63 503.822 144.905 502.287 147.363C499.763 151.406 495.711 153.892 491.395 156.239C489.716 157.152 487.817 157.105 486.403 156.926C485.705 156.838 485.597 155.406 486.081 154.353C487.187 151.948 490.381 150.712 492.839 149.788C493.925 149.38 494.809 149.474 495.432 149.962C496.054 150.449 496.42 151.424 496.547 152.475C496.675 153.526 496.553 154.623 495.759 155.615C492.264 159.98 487.577 160.053 485.043 160.921C484.69 161.042 485.701 162.018 486.626 162.395C490.676 164.044 495.423 159.587 499.428 157.238C503.473 154.867 507.855 154.276 512.84 154.582C521.649 155.124 526.08 155.997 531.985 155.696C535.762 155.504 538.402 153.293 539.819 152.497C540.435 152.151 540.138 151.092 539.527 150.287C535.673 145.211 526.25 144.672 518.497 145.346C514.808 145.667 511.83 146.268 509.556 147.19C508.5 147.618 507.649 147.989 509.098 148.056C520.673 148.587 527.558 146.032 532.417 145.963C541.764 145.832 549.816 147.62 555.142 148.486C560.215 149.311 566.334 153.035 571.821 155.681C573.048 156.273 573.854 156.972 573.806 157.591C573.758 158.21 572.783 158.819 571.61 159.133C569.163 159.788 566.74 159.081 564.41 157.369C557.568 152.344 558.489 146.785 558.538 140.079C558.549 138.699 559.818 138.4 560.684 138.334C564.512 138.04 570.995 142.803 578.894 147.489C583.268 150.083 587.521 152.665 590.177 155.68C592.53 158.35 592.094 166.406 593.807 171.93C595.539 177.509 585.428 139.073 586.922 141.782M586.922 141.782C589.651 146.73 596.131 165.217 592.106 161.817C586.473 157.057 573.263 161.914 571.85 160.81C567.408 157.338 593.807 164.378 595.712 163.15C596.65 162.545 616.756 178.619 617.5 178C623.269 173.204 587.299 142.464 586.922 141.782ZM586.922 141.782C584.32 137.075 595.647 147.62 606.091 148.117C608.129 148.214 608.22 149.334 608.222 151.236C608.231 160.682 620.866 140.532 620 145.963C618.866 153.075 612.3 186.173 615 183.066C642.068 151.925 624.293 249.818 625.214 251.353C625.648 252.156 629.884 229.752 631 231" stroke="white" stroke-width="20" stroke-linecap="round"/>
</svg>
