<svg width="615" height="185" viewBox="0 0 615 185" fill="none" xmlns="http://www.w3.org/2000/svg">
<path d="M518.129 3.53778e-06C516.444 -0.000465773 514.341 0.0459142 511.705 0.0459142H500.506H486.912C486.032 0.0459142 485.371 0.847371 485.537 1.71098L508.024 118.33L520.624 183.665C520.751 184.324 521.327 184.8 521.998 184.8H537.728C538.617 184.8 539.281 183.983 539.098 183.113L516.984 77.624C516.802 76.7541 517.466 75.9367 518.355 75.9367H523.894C524.553 75.9367 525.122 76.3953 525.262 77.0385L527.719 88.3081L548.519 183.698C548.66 184.341 549.229 184.8 549.887 184.8H565.605C566.508 184.8 567.174 183.958 566.968 183.08L565.418 176.484L544.71 88.3081L543.893 84.8292C542.464 78.2212 539.317 73.1402 534.458 69.5455C533.323 68.7065 533.758 66.8343 535.168 66.8013C538.23 66.7299 539.413 66.3491 538.175 62.1264L525.281 3.76727C524.495 0.421806 523.184 0.00140626 518.129 3.53778e-06ZM52.3418 0.0459142C51.7128 0.0459142 51.161 0.46541 50.9928 1.0715L18.4479 118.33L0.492461 183.026C0.244897 183.918 0.915749 184.8 1.84147 184.8H17.5305C18.1677 184.8 18.7245 184.37 18.8852 183.753L46.7253 76.9835C46.8861 76.367 47.4429 75.9367 48.08 75.9367H53.5899C54.5019 75.9367 55.1704 76.7948 54.9474 77.6791L52.2664 88.3081L28.3595 183.057C28.1363 183.942 28.8049 184.8 29.7169 184.8H45.4232C46.0729 184.8 46.6373 184.353 46.786 183.721L48.4885 176.484L69.2565 88.3081L70.0757 84.8292C71.5166 79.1591 70.6598 74.6133 68.2052 71.1661C67.3407 69.9521 68.3612 67.55 69.851 67.5915C74.2472 67.7139 75.1861 66.2586 76.605 60.2401L89.1407 4.52989C90.1913 0.0692222 90.2784 0.0458934 79.7335 0.0459142H66.5699H52.3418ZM103.848 0.0459142C103.192 0.0459142 102.624 0.501956 102.481 1.14278L62.1268 183.097C61.9329 183.971 62.5982 184.8 63.4936 184.8H92.6467C93.3177 184.8 93.8943 184.324 94.0214 183.665L97.5369 165.436C97.7035 164.572 97.0418 163.77 96.1623 163.77H86.6418C85.7558 163.77 85.0926 162.958 85.2703 162.09L99.2755 93.6732L102.456 77.0733C102.582 76.4137 103.159 75.9367 103.831 75.9367H113.639C114.309 75.9367 114.886 75.4607 115.013 74.8019L117.852 60.0864C118.019 59.2228 117.357 58.4212 116.478 58.4212H108.426C107.544 58.4212 106.882 57.6162 107.052 56.7512L113.587 23.503C113.666 23.1013 113.565 22.6852 113.311 22.3642L109.832 17.9683C109.105 17.0504 109.759 15.6994 110.929 15.6994H125.037C125.708 15.6994 126.285 15.2235 126.412 14.5647L128.892 1.71119C129.059 0.847517 128.397 0.0459142 127.518 0.0459142H103.848ZM156.322 0.0459142C146.846 0.0459142 141.267 4.74499 139.559 14.2874L110.555 176.242L109.317 183.153C109.163 184.011 109.823 184.8 110.695 184.8H126.702C127.389 184.8 127.974 184.302 128.084 183.624L145.31 77.3123C145.42 76.6343 146.005 76.1362 146.692 76.1362H152.263C153.121 76.1362 153.777 76.9008 153.647 77.7488L137.446 183.187C137.315 184.035 137.972 184.8 138.83 184.8H154.589C155.289 184.8 155.881 184.283 155.976 183.59L159.688 156.468L180.872 1.63569C180.987 0.79489 180.333 0.0459142 179.485 0.0459142H156.322ZM195.009 0.0459142C194.302 0.0459142 193.706 0.573122 193.619 1.27488L171.223 183.229C171.121 184.064 171.772 184.8 172.613 184.8H201.551C202.273 184.8 202.877 184.251 202.944 183.531L204.664 165.302C204.741 164.48 204.095 163.77 203.27 163.77H192.927C192.095 163.77 191.447 163.049 191.535 162.222L208.679 1.59451C208.768 0.767213 208.119 0.0459142 207.287 0.0459142H195.009ZM234.232 0.0459142C233.503 0.0459142 232.896 0.606191 232.837 1.3334L218.166 183.287C218.101 184.102 218.744 184.8 219.562 184.8H235.599C236.338 184.8 236.949 184.226 236.996 183.489L248.567 1.53475C248.618 0.728229 247.978 0.0459142 247.17 0.0459142H234.232ZM260.948 0.0459142C260.203 0.0459142 259.588 0.629425 259.549 1.37347L258.883 14.227C258.842 15.0276 259.48 15.6994 260.282 15.6994H268.96C269.755 15.6994 270.39 16.3603 270.359 17.1545L263.823 183.345C263.791 184.139 264.427 184.8 265.222 184.8H281.267C282.028 184.8 282.65 184.192 282.667 183.431L286.376 17.0682C286.393 16.3074 287.014 15.6994 287.775 15.6994H296.19C296.958 15.6994 297.582 15.0814 297.59 14.3139L297.723 1.46038C297.731 0.681566 297.102 0.0459142 296.323 0.0459142H260.948ZM308.884 0.0459142C308.005 0.0459142 307.343 0.847859 307.51 1.71167L321.817 75.7095C321.846 75.86 321.85 76.0142 321.829 76.166L312.157 146.503L309.702 165.196C308.932 171.06 308.082 177.055 307.149 183.187C307.02 184.035 307.676 184.8 308.534 184.8H324.019C324.726 184.8 325.321 184.274 325.408 183.573L330.955 138.977L339.053 74.1367L346.398 21.2155C346.638 19.9049 346.865 18.3015 347.077 16.4081C347.435 14.5223 347.716 12.5855 347.921 10.5983C348.27 8.61959 348.547 6.70572 348.754 4.85862C348.974 3.60821 349.142 2.50197 349.257 1.53834C349.353 0.732969 348.712 0.0459142 347.901 0.0459142H334.91C334.205 0.0459142 333.61 0.569947 333.521 1.26917L330.222 27.1946C330.021 28.7754 327.756 28.8455 327.458 27.2802L322.479 1.18355C322.353 0.523427 321.776 0.0459142 321.104 0.0459142H308.884ZM360.112 0.0459142C359.309 0.0459142 358.67 0.721151 358.715 1.52367L367.819 165.196C368.191 171.894 369.57 176.729 371.966 179.65C374.546 182.587 378.526 184.307 383.901 184.8H441.774C442.615 184.8 443.266 184.064 443.164 183.229L440.775 163.77C437.147 132.899 433.663 103.947 430.314 76.7398L421.171 2.44688L421.026 1.2745C420.94 0.57291 420.344 0.0459142 419.637 0.0459142H407.142C406.31 0.0459142 405.662 0.766988 405.75 1.59418L422.731 161.039C422.819 161.866 422.171 162.587 421.339 162.587H414.793C414.073 162.587 413.47 162.041 413.4 161.324L397.738 1.30953C397.668 0.592579 397.065 0.0459142 396.344 0.0459142H383.627C382.809 0.0459142 382.165 0.743896 382.232 1.55902L395.142 160.837C395.208 161.652 394.564 162.35 393.746 162.35H387.703C386.969 162.35 386.36 161.784 386.307 161.052L374.666 1.34414C374.613 0.612368 374.004 0.0459142 373.27 0.0459142H360.112ZM447.768 0.0459142C438.291 0.0459142 434.198 4.74499 435.504 14.2874L457.663 176.242L458.669 183.59C458.764 184.283 459.356 184.8 460.056 184.8H476.074C476.932 184.8 477.588 184.035 477.458 183.187L461.233 77.7491C461.103 76.901 461.759 76.1362 462.617 76.1362H468.185C468.872 76.1362 469.457 76.6341 469.567 77.3119L486.82 183.624C486.93 184.302 487.515 184.8 488.202 184.8H503.95C504.822 184.8 505.482 184.011 505.328 183.153L500.549 156.468L472.744 1.19914C472.624 0.531757 472.044 0.0459142 471.366 0.0459142H447.768ZM538.451 0.0459115C537.541 0.0459129 536.873 0.900508 537.093 1.78366L582.325 183.738C582.48 184.362 583.04 184.8 583.684 184.8H612.804C613.729 184.8 614.4 183.918 614.153 183.026L609.093 164.796C608.925 164.19 608.373 163.77 607.744 163.77H596.951C596.316 163.77 595.76 163.343 595.597 162.73L577.253 93.6732L572.804 77.7127C572.555 76.8203 573.226 75.9367 574.152 75.9367H582.588C583.514 75.9367 584.185 75.0543 583.937 74.1623L579.853 59.4468C579.685 58.8407 579.133 58.4212 578.504 58.4212H569.196C568.561 58.4212 568.005 57.9936 567.843 57.3796L558.796 23.216C558.718 22.9215 558.547 22.6606 558.307 22.4726L553.106 18.3949C552.068 17.5802 552.63 15.9122 553.95 15.8933L565.679 15.7254C566.597 15.7122 567.254 14.8353 567.008 13.9514L563.437 1.07174C563.268 0.465511 562.717 0.0458751 562.088 0.045876L538.451 0.0459115ZM150.483 17.825C149.716 16.9056 150.382 15.5096 151.579 15.528L161.134 15.6748C161.984 15.6878 162.626 16.4482 162.496 17.2878L156.311 57.4258C156.206 58.1086 155.618 58.6125 154.928 58.6125H150.424C149.568 58.6125 148.912 57.8517 149.039 57.0054L154.136 22.9339C154.195 22.5384 154.082 22.1366 153.826 21.8296L150.483 17.825ZM58.2916 17.9631C57.5715 17.0442 58.2261 15.6994 59.3935 15.6994H68.3505C69.2628 15.6994 69.9314 16.558 69.7078 17.4425L59.812 56.5909C59.6549 57.2124 59.0957 57.6479 58.4547 57.6479H54.0094C53.1008 57.6479 52.4329 56.7957 52.65 55.9134L60.9407 22.2123C61.0434 21.7946 60.9485 21.3528 60.6831 21.0143L58.2916 17.9631ZM457.916 15.7233C458.613 15.7096 459.214 16.211 459.325 16.8994L465.813 56.9889C465.951 57.8403 465.293 58.6125 464.431 58.6125H459.921C459.241 58.6125 458.66 58.1248 458.542 57.4558L452.299 22.0679C452.24 21.7387 452.066 21.4411 451.808 21.229L448.332 18.3764C447.327 17.551 447.892 15.92 449.193 15.8944L457.916 15.7233ZM501.309 18.1503C500.34 17.2974 500.944 15.6994 502.234 15.6994H510.323C510.982 15.6994 511.551 16.1583 511.691 16.8018L520.209 55.9502C520.399 56.8229 519.734 57.6479 518.841 57.6479H514.4C513.734 57.6479 513.16 57.1778 513.028 56.5243L506.252 22.8826C506.192 22.5825 506.035 22.3105 505.805 22.1082L501.309 18.1503Z" fill="#EFF8FF"/>
<mask id="mask0_163_208" style="mask-type:alpha" maskUnits="userSpaceOnUse" x="0" y="0" width="615" height="185">
<path d="M518.129 3.53778e-06C516.444 -0.000465773 514.341 0.0459142 511.705 0.0459142H500.506H486.912C486.032 0.0459142 485.371 0.847372 485.537 1.71098L508.024 118.33L520.624 183.665C520.751 184.324 521.327 184.8 521.998 184.8H537.728C538.617 184.8 539.281 183.983 539.098 183.113L516.984 77.624C516.802 76.7541 517.466 75.9367 518.355 75.9367H523.894C524.553 75.9367 525.122 76.3953 525.262 77.0385L527.719 88.3081L548.519 183.698C548.66 184.341 549.229 184.8 549.887 184.8H565.605C566.508 184.8 567.174 183.958 566.968 183.08L565.418 176.484L544.71 88.3081L543.893 84.8292C542.464 78.2212 539.317 73.1402 534.458 69.5456C533.323 68.7065 533.758 66.8343 535.168 66.8013C538.23 66.7299 539.413 66.3491 538.175 62.1264L525.281 3.76727C524.495 0.421806 523.184 0.00140626 518.129 3.53778e-06ZM52.3418 0.0459142C51.7128 0.0459142 51.161 0.46541 50.9928 1.0715L18.4479 118.33L0.492461 183.026C0.244897 183.918 0.915749 184.8 1.84147 184.8H17.5305C18.1677 184.8 18.7245 184.37 18.8852 183.753L46.7253 76.9835C46.8861 76.367 47.4429 75.9367 48.08 75.9367H53.5899C54.5019 75.9367 55.1704 76.7948 54.9474 77.6791L52.2664 88.3081L28.3595 183.057C28.1363 183.942 28.8049 184.8 29.7169 184.8H45.4232C46.0729 184.8 46.6373 184.353 46.786 183.721L48.4885 176.484L69.2565 88.3081L70.0757 84.8292C71.5166 79.1591 70.6598 74.6133 68.2052 71.1661C67.3407 69.9521 68.3612 67.55 69.851 67.5915C74.2472 67.7139 75.1861 66.2586 76.605 60.2401L89.1407 4.52989C90.1913 0.0692225 90.2784 0.0458934 79.7335 0.0459142H66.5699H52.3418ZM103.848 0.0459142C103.192 0.0459142 102.624 0.501956 102.481 1.14278L62.1268 183.097C61.9329 183.971 62.5982 184.8 63.4936 184.8H92.6467C93.3177 184.8 93.8943 184.324 94.0214 183.665L97.5369 165.436C97.7035 164.572 97.0418 163.77 96.1623 163.77H86.6418C85.7558 163.77 85.0926 162.958 85.2703 162.09L99.2755 93.6732L102.456 77.0733C102.582 76.4137 103.159 75.9367 103.831 75.9367H113.639C114.309 75.9367 114.886 75.4607 115.013 74.8019L117.852 60.0864C118.019 59.2228 117.357 58.4212 116.478 58.4212H108.426C107.544 58.4212 106.882 57.6162 107.052 56.7512L113.587 23.503C113.666 23.1013 113.565 22.6852 113.311 22.3642L109.832 17.9683C109.105 17.0504 109.759 15.6994 110.929 15.6994H125.037C125.708 15.6994 126.285 15.2235 126.412 14.5647L128.892 1.71119C129.059 0.847518 128.397 0.0459142 127.518 0.0459142H103.848ZM156.322 0.0459142C146.846 0.0459142 141.267 4.74499 139.559 14.2874L110.555 176.242L109.317 183.153C109.163 184.011 109.823 184.8 110.695 184.8H126.702C127.389 184.8 127.974 184.302 128.084 183.624L145.31 77.3123C145.42 76.6343 146.005 76.1362 146.692 76.1362H152.263C153.121 76.1362 153.777 76.9008 153.647 77.7488L137.446 183.187C137.315 184.035 137.972 184.8 138.83 184.8H154.589C155.289 184.8 155.881 184.283 155.976 183.59L159.688 156.468L180.872 1.63569C180.987 0.79489 180.333 0.0459142 179.485 0.0459142H156.322ZM195.009 0.0459142C194.302 0.0459142 193.706 0.573122 193.619 1.27488L171.223 183.229C171.121 184.064 171.772 184.8 172.613 184.8H201.551C202.273 184.8 202.877 184.251 202.944 183.531L204.664 165.302C204.741 164.48 204.095 163.77 203.27 163.77H192.927C192.095 163.77 191.447 163.049 191.535 162.222L208.679 1.59451C208.768 0.767214 208.119 0.0459142 207.287 0.0459142H195.009ZM234.232 0.0459142C233.503 0.0459142 232.896 0.606191 232.837 1.3334L218.166 183.287C218.101 184.102 218.744 184.8 219.562 184.8H235.599C236.338 184.8 236.949 184.226 236.996 183.489L248.567 1.53475C248.618 0.728229 247.978 0.0459142 247.17 0.0459142H234.232ZM260.948 0.0459142C260.203 0.0459142 259.588 0.629425 259.549 1.37347L258.883 14.227C258.842 15.0276 259.48 15.6994 260.282 15.6994H268.96C269.755 15.6994 270.39 16.3603 270.359 17.1545L263.823 183.345C263.791 184.139 264.427 184.8 265.222 184.8H281.267C282.028 184.8 282.65 184.192 282.667 183.431L286.376 17.0682C286.393 16.3074 287.014 15.6994 287.775 15.6994H296.19C296.958 15.6994 297.582 15.0814 297.59 14.3139L297.723 1.46038C297.731 0.681565 297.102 0.0459142 296.323 0.0459142H260.948ZM308.884 0.0459142C308.005 0.0459142 307.343 0.847859 307.51 1.71167L321.817 75.7095C321.846 75.86 321.85 76.0142 321.829 76.166L312.157 146.503L309.702 165.196C308.932 171.06 308.082 177.055 307.149 183.187C307.02 184.035 307.676 184.8 308.534 184.8H324.019C324.726 184.8 325.321 184.274 325.408 183.573L330.955 138.977L339.053 74.1367L346.398 21.2155C346.638 19.9049 346.865 18.3015 347.077 16.4081C347.435 14.5223 347.716 12.5855 347.921 10.5983C348.27 8.61959 348.547 6.70572 348.754 4.85862C348.974 3.60821 349.142 2.50197 349.257 1.53834C349.353 0.732969 348.712 0.0459142 347.901 0.0459142H334.91C334.205 0.0459142 333.61 0.569948 333.521 1.26917L330.222 27.1946C330.021 28.7754 327.756 28.8455 327.458 27.2802L322.479 1.18355C322.353 0.523427 321.776 0.0459142 321.104 0.0459142H308.884ZM360.112 0.0459142C359.309 0.0459142 358.67 0.721151 358.715 1.52367L367.819 165.196C368.191 171.894 369.57 176.729 371.966 179.65C374.546 182.588 378.526 184.307 383.901 184.8H441.774C442.615 184.8 443.266 184.064 443.164 183.229L440.775 163.77C437.147 132.899 433.663 103.947 430.314 76.7398L421.171 2.44688L421.026 1.2745C420.94 0.572906 420.344 0.0459142 419.637 0.0459142H407.142C406.31 0.0459142 405.662 0.766989 405.75 1.59418L422.731 161.039C422.819 161.866 422.171 162.588 421.339 162.588H414.793C414.073 162.588 413.47 162.041 413.4 161.324L397.738 1.30953C397.668 0.59258 397.065 0.0459142 396.344 0.0459142H383.627C382.809 0.0459142 382.165 0.743896 382.232 1.55902L395.142 160.837C395.208 161.652 394.564 162.35 393.746 162.35H387.703C386.969 162.35 386.36 161.784 386.307 161.052L374.666 1.34414C374.613 0.612368 374.004 0.0459142 373.27 0.0459142H360.112ZM447.768 0.0459142C438.291 0.0459142 434.198 4.74499 435.504 14.2874L457.663 176.242L458.669 183.59C458.764 184.283 459.356 184.8 460.056 184.8H476.074C476.932 184.8 477.588 184.035 477.458 183.187L461.233 77.7491C461.103 76.901 461.759 76.1362 462.617 76.1362H468.185C468.872 76.1362 469.457 76.6342 469.567 77.3119L486.82 183.624C486.93 184.302 487.515 184.8 488.202 184.8H503.95C504.822 184.8 505.482 184.011 505.328 183.153L500.549 156.468L472.744 1.19914C472.624 0.531757 472.044 0.0459142 471.366 0.0459142H447.768ZM538.451 0.0459116C537.541 0.0459129 536.873 0.900508 537.093 1.78366L582.325 183.738C582.48 184.362 583.04 184.8 583.684 184.8H612.804C613.729 184.8 614.4 183.918 614.153 183.026L609.093 164.796C608.925 164.19 608.373 163.77 607.744 163.77H596.951C596.316 163.77 595.76 163.343 595.597 162.73L577.253 93.6732L572.804 77.7127C572.555 76.8204 573.226 75.9367 574.152 75.9367H582.588C583.514 75.9367 584.185 75.0543 583.937 74.1623L579.853 59.4468C579.685 58.8407 579.133 58.4212 578.504 58.4212H569.196C568.561 58.4212 568.005 57.9936 567.843 57.3796L558.796 23.216C558.718 22.9215 558.546 22.6606 558.307 22.4726L553.106 18.3949C552.068 17.5802 552.63 15.9122 553.95 15.8933L565.679 15.7254C566.597 15.7122 567.254 14.8353 567.008 13.9514L563.437 1.07174C563.268 0.465509 562.717 0.0458751 562.088 0.0458761L538.451 0.0459116ZM150.483 17.825C149.716 16.9056 150.382 15.5096 151.579 15.528L161.134 15.6748C161.984 15.6878 162.626 16.4482 162.496 17.2878L156.311 57.4258C156.206 58.1086 155.618 58.6125 154.928 58.6125H150.424C149.568 58.6125 148.912 57.8517 149.039 57.0054L154.136 22.9339C154.195 22.5384 154.082 22.1366 153.826 21.8296L150.483 17.825ZM58.2916 17.9631C57.5715 17.0442 58.2261 15.6994 59.3935 15.6994H68.3505C69.2628 15.6994 69.9314 16.558 69.7078 17.4425L59.812 56.591C59.6549 57.2125 59.0957 57.6479 58.4547 57.6479H54.0094C53.1008 57.6479 52.4329 56.7957 52.65 55.9134L60.9407 22.2123C61.0434 21.7946 60.9485 21.3529 60.6831 21.0143L58.2916 17.9631ZM457.916 15.7233C458.613 15.7096 459.214 16.211 459.325 16.8994L465.813 56.9889C465.951 57.8403 465.293 58.6125 464.431 58.6125H459.921C459.241 58.6125 458.66 58.1248 458.542 57.4558L452.299 22.0679C452.24 21.7387 452.066 21.4411 451.808 21.229L448.332 18.3764C447.327 17.551 447.892 15.92 449.193 15.8944L457.916 15.7233ZM501.309 18.1503C500.34 17.2974 500.944 15.6994 502.234 15.6994H510.323C510.982 15.6994 511.551 16.1583 511.691 16.8018L520.209 55.9502C520.399 56.8229 519.734 57.6479 518.841 57.6479H514.4C513.734 57.6479 513.16 57.1778 513.028 56.5243L506.252 22.8826C506.192 22.5825 506.035 22.3105 505.805 22.1082L501.309 18.1503Z" fill="#E5F3FF"/>
</mask>
<g mask="url(#mask0_163_208)">
<g filter="url(#filter0_fn_163_208)">
<path d="M208.599 122.518C208.599 178.961 34.8211 261.1 -12.1863 261.1C-59.1938 261.1 -97.3008 215.343 -97.3008 158.9C-97.3008 102.456 -59.1938 56.6997 -12.1863 56.6997C34.8211 56.6997 208.599 66.0743 208.599 122.518Z" fill="#FF7231"/>
</g>
<g filter="url(#filter1_f_163_208)">
<path d="M689.5 38.15C689.5 97.8796 404.376 184.8 327.25 184.8C250.123 184.8 187.6 136.38 187.6 76.65C187.6 16.9204 250.123 -31.5 327.25 -31.5C404.376 -31.5 689.5 -21.5796 689.5 38.15Z" fill="white" fill-opacity="0.2"/>
</g>
<g filter="url(#filter2_fn_163_208)">
<path d="M800.799 5.94981C800.799 65.6794 515.676 152.6 438.549 152.6C361.423 152.6 298.899 104.179 298.899 44.4498C298.899 -15.2798 361.423 -63.7002 438.549 -63.7002C515.676 -63.7002 800.799 -53.7798 800.799 5.94981Z" fill="#B3FFB8"/>
</g>
<g filter="url(#filter3_fn_163_208)">
<path d="M651.699 93.2392C651.699 123.974 564.612 168.7 541.054 168.7C517.497 168.7 498.399 143.785 498.399 113.05C498.399 82.3153 517.497 57.3999 541.054 57.3999C564.612 57.3999 651.699 62.5046 651.699 93.2392Z" fill="#3C3CCC" fill-opacity="0.7"/>
</g>
</g>
<defs>
<filter id="filter0_fn_163_208" x="-167.301" y="-13.3003" width="445.9" height="344.4" filterUnits="userSpaceOnUse" color-interpolation-filters="sRGB">
<feFlood flood-opacity="0" result="BackgroundImageFix"/>
<feBlend mode="normal" in="SourceGraphic" in2="BackgroundImageFix" result="shape"/>
<feGaussianBlur stdDeviation="35" result="effect1_foregroundBlur_163_208"/>
<feTurbulence type="fractalNoise" baseFrequency="2.8571429252624512 2.8571429252624512" stitchTiles="stitch" numOctaves="3" result="noise" seed="1681" />
<feColorMatrix in="noise" type="luminanceToAlpha" result="alphaNoise" />
<feComponentTransfer in="alphaNoise" result="coloredNoise1">
<feFuncA type="discrete" tableValues="1 1 1 1 1 1 1 1 1 1 1 1 1 1 1 1 1 1 1 1 1 1 1 1 1 1 1 1 1 1 1 1 1 1 1 1 1 1 1 1 1 1 1 1 1 1 1 1 1 1 1 0 0 0 0 0 0 0 0 0 0 0 0 0 0 0 0 0 0 0 0 0 0 0 0 0 0 0 0 0 0 0 0 0 0 0 0 0 0 0 0 0 0 0 0 0 0 0 0 0 "/>
</feComponentTransfer>
<feComposite operator="in" in2="effect1_foregroundBlur_163_208" in="coloredNoise1" result="noise1Clipped" />
<feFlood flood-color="rgba(0, 0, 0, 0.25)" result="color1Flood" />
<feComposite operator="in" in2="noise1Clipped" in="color1Flood" result="color1" />
<feMerge result="effect2_noise_163_208">
<feMergeNode in="effect1_foregroundBlur_163_208" />
<feMergeNode in="color1" />
</feMerge>
</filter>
<filter id="filter1_f_163_208" x="117.6" y="-101.5" width="641.9" height="356.3" filterUnits="userSpaceOnUse" color-interpolation-filters="sRGB">
<feFlood flood-opacity="0" result="BackgroundImageFix"/>
<feBlend mode="normal" in="SourceGraphic" in2="BackgroundImageFix" result="shape"/>
<feGaussianBlur stdDeviation="35" result="effect1_foregroundBlur_163_208"/>
</filter>
<filter id="filter2_fn_163_208" x="228.899" y="-133.7" width="641.9" height="356.3" filterUnits="userSpaceOnUse" color-interpolation-filters="sRGB">
<feFlood flood-opacity="0" result="BackgroundImageFix"/>
<feBlend mode="normal" in="SourceGraphic" in2="BackgroundImageFix" result="shape"/>
<feGaussianBlur stdDeviation="35" result="effect1_foregroundBlur_163_208"/>
<feTurbulence type="fractalNoise" baseFrequency="2.8571429252624512 2.8571429252624512" stitchTiles="stitch" numOctaves="3" result="noise" seed="1681" />
<feColorMatrix in="noise" type="luminanceToAlpha" result="alphaNoise" />
<feComponentTransfer in="alphaNoise" result="coloredNoise1">
<feFuncA type="discrete" tableValues="1 1 1 1 1 1 1 1 1 1 1 1 1 1 1 1 1 1 1 1 1 1 1 1 1 1 1 1 1 1 1 1 1 1 1 1 1 1 1 1 1 1 1 1 1 1 1 1 1 1 1 0 0 0 0 0 0 0 0 0 0 0 0 0 0 0 0 0 0 0 0 0 0 0 0 0 0 0 0 0 0 0 0 0 0 0 0 0 0 0 0 0 0 0 0 0 0 0 0 0 "/>
</feComponentTransfer>
<feComposite operator="in" in2="effect1_foregroundBlur_163_208" in="coloredNoise1" result="noise1Clipped" />
<feFlood flood-color="rgba(0, 0, 0, 0.25)" result="color1Flood" />
<feComposite operator="in" in2="noise1Clipped" in="color1Flood" result="color1" />
<feMerge result="effect2_noise_163_208">
<feMergeNode in="effect1_foregroundBlur_163_208" />
<feMergeNode in="color1" />
</feMerge>
</filter>
<filter id="filter3_fn_163_208" x="428.399" y="-12.6001" width="293.3" height="251.3" filterUnits="userSpaceOnUse" color-interpolation-filters="sRGB">
<feFlood flood-opacity="0" result="BackgroundImageFix"/>
<feBlend mode="normal" in="SourceGraphic" in2="BackgroundImageFix" result="shape"/>
<feGaussianBlur stdDeviation="35" result="effect1_foregroundBlur_163_208"/>
<feTurbulence type="fractalNoise" baseFrequency="2.8571429252624512 2.8571429252624512" stitchTiles="stitch" numOctaves="3" result="noise" seed="1681" />
<feColorMatrix in="noise" type="luminanceToAlpha" result="alphaNoise" />
<feComponentTransfer in="alphaNoise" result="coloredNoise1">
<feFuncA type="discrete" tableValues="1 1 1 1 1 1 1 1 1 1 1 1 1 1 1 1 1 1 1 1 1 1 1 1 1 1 1 1 1 1 1 1 1 1 1 1 1 1 1 1 1 1 1 1 1 1 1 1 1 1 1 0 0 0 0 0 0 0 0 0 0 0 0 0 0 0 0 0 0 0 0 0 0 0 0 0 0 0 0 0 0 0 0 0 0 0 0 0 0 0 0 0 0 0 0 0 0 0 0 0 "/>
</feComponentTransfer>
<feComposite operator="in" in2="effect1_foregroundBlur_163_208" in="coloredNoise1" result="noise1Clipped" />
<feFlood flood-color="rgba(0, 0, 0, 0.25)" result="color1Flood" />
<feComposite operator="in" in2="noise1Clipped" in="color1Flood" result="color1" />
<feMerge result="effect2_noise_163_208">
<feMergeNode in="effect1_foregroundBlur_163_208" />
<feMergeNode in="color1" />
</feMerge>
</filter>
</defs>
</svg>
