<svg width="430" height="130" viewBox="0 0 430 130" fill="none" xmlns="http://www.w3.org/2000/svg">
<path d="M362.362 2.47664e-06C361.183 -0.000326066 359.711 0.0321424 357.865 0.0321424H350.025H340.692C339.981 0.0321424 339.446 0.67972 339.581 1.37752L355.288 82.8372L364.085 128.453C364.188 128.985 364.654 129.37 365.196 129.37H375.897C376.615 129.37 377.151 128.71 377.004 128.007L361.599 54.5231C361.452 53.8203 361.988 53.1598 362.706 53.1598H366.277C366.809 53.1598 367.269 53.5304 367.382 54.05L369.076 61.8205L383.611 128.48C383.725 128.999 384.185 129.37 384.717 129.37H395.407C396.137 129.37 396.675 128.69 396.509 127.98L395.467 123.548L380.97 61.8205L380.399 59.385C379.44 54.9538 377.378 51.5035 374.217 49.009C373.322 48.3029 373.685 46.8085 374.823 46.7448C376.566 46.6472 377.186 46.1892 376.396 43.4918L367.369 2.63729C366.819 0.295287 365.901 0.000984455 362.362 2.47664e-06ZM36.401 0.0321424C35.8928 0.0321424 35.447 0.371095 35.3111 0.860815L12.5586 82.8372L0.0419515 127.936C-0.15808 128.657 0.383968 129.37 1.13195 129.37H11.7996C12.3144 129.37 12.7643 129.022 12.8942 128.524L32.3248 54.0056C32.4547 53.5074 32.9046 53.1598 33.4194 53.1598H36.9659C37.7028 53.1598 38.243 53.8532 38.0627 54.5677L36.2334 61.8205L19.5447 127.962C19.3644 128.677 19.9045 129.37 20.6415 129.37H31.3231C31.848 129.37 32.304 129.009 32.4242 128.498L33.5886 123.548L48.1273 61.8205L48.7008 59.385C49.634 55.7129 49.1906 52.7144 47.7584 50.3752C47.1296 49.3482 48.0041 47.3591 49.2076 47.3171C51.7235 47.2291 52.3543 46.0628 53.2717 42.1714L62.0474 3.17116C62.7828 0.0484593 62.8438 0.0321278 55.4618 0.0321424H46.2466H36.401ZM72.4647 0.0321424C71.9343 0.0321424 71.4752 0.400624 71.3603 0.918411L43.1769 127.994C43.0203 128.7 43.5578 129.37 44.2813 129.37H64.377C64.9192 129.37 65.3851 128.985 65.4877 128.453L67.8905 115.994C68.0251 115.296 67.4904 114.648 66.7798 114.648H60.4832C59.7673 114.648 59.2314 113.992 59.375 113.29L69.1423 65.5763L71.3451 54.0782C71.4472 53.5452 71.9134 53.1598 72.4561 53.1598H79.0724C79.6145 53.1598 80.0804 52.7752 80.1831 52.2429L82.1123 42.2435C82.2469 41.5457 81.7122 40.898 81.0015 40.898H75.7315C75.0192 40.898 74.4842 40.2476 74.6216 39.5487L79.1474 16.5217C79.2112 16.1971 79.1297 15.8609 78.9244 15.6015L76.7259 12.8237C76.139 12.0821 76.6672 10.9905 77.6129 10.9905H87.0521C87.5942 10.9905 88.0601 10.6059 88.1628 10.0736L89.8409 1.37768C89.9756 0.679838 89.4409 0.0321424 88.7302 0.0321424H72.4647ZM109.078 0.0321424C102.444 0.0321424 98.5389 3.32175 97.3426 10.0019L77.0389 123.379L76.2039 128.039C76.0796 128.733 76.6128 129.37 77.3174 129.37H88.2135C88.7684 129.37 89.2414 128.967 89.3302 128.42L101.348 54.2497C101.437 53.702 101.91 53.2994 102.465 53.2994H106.06C106.753 53.2994 107.284 53.9173 107.178 54.6024L95.8903 128.067C95.785 128.752 96.3151 129.37 97.0084 129.37H107.733C108.298 129.37 108.777 128.952 108.854 128.392L111.434 109.536L126.241 1.31668C126.334 0.637318 125.806 0.0321424 125.12 0.0321424H109.078ZM136.294 0.0321424C135.723 0.0321424 135.242 0.458127 135.172 1.02515L119.531 128.101C119.448 128.775 119.974 129.37 120.653 129.37H140.603C141.186 129.37 141.674 128.926 141.729 128.345L142.904 115.886C142.967 115.222 142.445 114.648 141.778 114.648H134.871C134.199 114.648 133.675 114.065 133.747 113.397L145.713 1.2834C145.784 0.614944 145.261 0.0321424 144.588 0.0321424H136.294ZM163.759 0.0321424C163.169 0.0321424 162.679 0.484846 162.631 1.07243L152.385 128.148C152.332 128.806 152.852 129.37 153.513 129.37H164.434C165.031 129.37 165.525 128.906 165.563 128.311L173.644 1.23513C173.686 0.583459 173.168 0.0321424 172.515 0.0321424H163.759ZM182.465 0.0321424C181.863 0.0321424 181.366 0.503619 181.335 1.10481L180.885 9.80072C180.851 10.4476 181.367 10.9905 182.014 10.9905H187.773C188.415 10.9905 188.929 11.5244 188.904 12.1661L184.34 128.194C184.315 128.836 184.828 129.37 185.471 129.37H196.399C197.013 129.37 197.516 128.879 197.529 128.264L200.119 12.0964C200.133 11.4817 200.635 10.9905 201.25 10.9905H206.844C207.464 10.9905 207.968 10.4911 207.975 9.87094L208.065 1.17503C208.071 0.54575 207.563 0.0321424 206.933 0.0321424H182.465ZM216.063 0.0321424C215.352 0.0321424 214.817 0.680114 214.952 1.37807L224.928 52.9762C224.952 53.0978 224.955 53.2224 224.938 53.3451L218.171 102.56L216.452 115.646C215.92 119.696 215.334 123.835 214.691 128.067C214.587 128.752 215.117 129.37 215.811 129.37H226.341C226.912 129.37 227.394 128.945 227.464 128.378L231.331 97.2911L236.999 51.8997L242.142 14.852C242.309 13.9345 242.468 12.8121 242.617 11.4866C242.867 10.1664 243.064 8.81054 243.208 7.41941C243.452 6.03418 243.646 4.69437 243.79 3.4013C243.933 2.59469 244.044 1.87378 244.123 1.23772C244.204 0.587424 243.687 0.0321424 243.031 0.0321424H234.232C233.663 0.0321424 233.182 0.455561 233.11 1.02054L230.937 18.094C230.775 19.3713 228.945 19.428 228.704 18.1632L225.42 0.951354C225.318 0.417974 224.852 0.0321424 224.309 0.0321424H216.063ZM251.902 0.0321424C251.253 0.0321424 250.736 0.577734 250.773 1.22617L257.137 115.646C257.398 120.335 258.363 123.72 260.04 125.765C261.846 127.821 264.633 129.025 268.395 129.37H308.739C309.418 129.37 309.945 128.775 309.862 128.101L308.21 114.648C305.67 93.0364 303.232 72.7683 300.887 53.722L294.487 1.71295L294.402 1.02484C294.332 0.457955 293.85 0.0321424 293.279 0.0321424H284.834C284.161 0.0321424 283.638 0.61477 283.709 1.28314L295.561 112.569C295.632 113.237 295.108 113.82 294.436 113.82H290.159C289.577 113.82 289.09 113.378 289.033 112.799L278.095 1.05315C278.039 0.473851 277.552 0.0321424 276.97 0.0321424H268.368C267.707 0.0321424 267.187 0.596112 267.24 1.25473L276.251 112.431C276.305 113.09 275.785 113.654 275.124 113.654H271.198C270.605 113.654 270.113 113.196 270.07 112.605L261.941 1.08111C261.898 0.48984 261.406 0.0321424 260.813 0.0321424H251.902ZM313.106 0.0321424C306.472 0.0321424 303.606 3.32175 304.52 10.0019L320.033 123.379L320.719 128.392C320.796 128.952 321.275 129.37 321.84 129.37H332.745C333.439 129.37 333.969 128.752 333.863 128.067L322.559 54.6027C322.454 53.9174 322.984 53.2994 323.677 53.2994H327.271C327.825 53.2994 328.298 53.7018 328.387 54.2494L340.424 128.42C340.513 128.968 340.985 129.37 341.54 129.37H352.256C352.96 129.37 353.493 128.733 353.369 128.039L350.055 109.536L330.613 0.963941C330.516 0.424693 330.047 0.0321424 329.499 0.0321424H313.106ZM376.782 0.0321403C376.047 0.0321414 375.507 0.722654 375.684 1.43624L407.274 128.512C407.4 129.016 407.853 129.37 408.372 129.37H428.441C429.189 129.37 429.731 128.657 429.531 127.936L426.073 115.477C425.937 114.987 425.491 114.648 424.983 114.648H417.658C417.145 114.648 416.696 114.303 416.565 113.807L403.753 65.5763L400.691 54.5948C400.49 53.8738 401.032 53.1598 401.781 53.1598H407.288C408.036 53.1598 408.578 52.4468 408.378 51.7261L405.603 41.7267C405.467 41.237 405.021 40.898 404.513 40.898H398.228C397.715 40.898 397.266 40.5525 397.135 40.0564L390.845 16.3014C390.782 16.0635 390.643 15.8526 390.449 15.7008L387.185 13.1413C386.346 12.4831 386.8 11.1353 387.867 11.1201L395.454 11.0114C396.196 11.0008 396.726 10.2922 396.528 9.57802L394.111 0.861013C393.975 0.37118 393.529 0.0321151 393.021 0.0321159L376.782 0.0321403ZM105.201 12.7315C104.581 11.9886 105.12 10.8607 106.087 10.8755L112.273 10.9705C112.96 10.9811 113.478 11.5955 113.374 12.2739L109.09 40.073C109.005 40.6247 108.53 41.0319 107.972 41.0319H105.124C104.433 41.0319 103.903 40.4172 104.005 39.7334L107.537 16.1221C107.585 15.8026 107.494 15.4779 107.287 15.2298L105.201 12.7315ZM40.6429 12.8195C40.061 12.0771 40.5899 10.9905 41.5332 10.9905H47.299C48.0362 10.9905 48.5764 11.6842 48.3957 12.3989L41.5445 39.5026C41.4176 40.0048 40.9658 40.3566 40.4478 40.3566H37.6464C36.9122 40.3566 36.3726 39.6681 36.5479 38.9552L42.2882 15.6213C42.3713 15.2838 42.2945 14.9268 42.0801 14.6532L40.6429 12.8195ZM320.079 11.0097C320.642 10.9987 321.128 11.4038 321.218 11.96L325.71 39.72C325.821 40.4079 325.29 41.0319 324.593 41.0319H321.74C321.191 41.0319 320.721 40.6379 320.626 40.0973L316.287 15.5038C316.24 15.2378 316.1 14.9973 315.891 14.826L313.818 13.1243C313.005 12.4574 313.462 11.1396 314.513 11.1189L320.079 11.0097ZM350.888 12.9707C350.105 12.2816 350.593 10.9905 351.635 10.9905H356.776C357.308 10.9905 357.768 11.3613 357.882 11.8812L363.779 38.9849C363.932 39.69 363.395 40.3566 362.673 40.3566H359.876C359.337 40.3566 358.873 39.9768 358.767 39.4488L354.058 16.069C354.009 15.8265 353.882 15.6067 353.697 15.4433L350.888 12.9707Z" fill="white"/>
</svg>
